<?xml version="1.0" encoding="UTF-8"?>
<svg xmlns="http://www.w3.org/2000/svg" xmlns:xlink="http://www.w3.org/1999/xlink" width="384pt" height="512pt" viewBox="0 0 384 512" version="1.1">
<g id="surface1">
<path style=" stroke:none;fill-rule:nonzero;fill:rgb(100%,100%,0%);fill-opacity:1;" d="M 342.855469 32 L 41.144531 32 C 18.429688 32 0 53.5 0 80 L 0 432 C 0 458.5 18.429688 480 41.144531 480 L 342.855469 480 C 365.570312 480 384 458.5 384 432 L 384 80 C 384 53.5 365.570312 32 342.855469 32 Z M 208.972656 381.398438 C 208.972656 425 187.027344 444.898438 155.058594 444.898438 C 126.171875 444.898438 109.457031 427.5 100.886719 406.398438 L 130.285156 385.699219 C 135.941406 397.398438 141.085938 407.300781 153.515625 407.300781 C 165.34375 407.300781 172.886719 401.898438 172.886719 380.800781 L 172.886719 237.699219 L 208.972656 237.699219 Z M 294.34375 444.898438 C 260.828125 444.898438 239.144531 426.300781 228.601562 401.898438 L 258 382.101562 C 265.714844 396.800781 275.828125 407.699219 293.570312 407.699219 C 308.484375 407.699219 318.085938 399 318.085938 386.898438 C 318.085938 372.5 308.3125 367.398438 291.769531 358.898438 L 282.769531 354.398438 C 256.714844 341.5 239.484375 325.199219 239.484375 290.898438 C 239.484375 259.300781 260.144531 235.300781 292.285156 235.300781 C 315.257812 235.300781 331.714844 244.601562 343.542969 269 L 315.429688 290 C 309.257812 277.101562 302.570312 272 292.199219 272 C 281.65625 272 274.972656 279.800781 274.972656 290 C 274.972656 302.601562 281.65625 307.699219 297.171875 315.601562 L 306.171875 320.101562 C 336.855469 335.398438 354.085938 351.101562 354.085938 386.300781 C 354.085938 424.101562 328.542969 444.898438 294.34375 444.898438 Z M 294.34375 444.898438 "/>
</g>
</svg>
