<?xml version="1.0" encoding="UTF-8"?>
<svg xmlns="http://www.w3.org/2000/svg" xmlns:xlink="http://www.w3.org/1999/xlink" width="384pt" height="512pt" viewBox="0 0 384 512" version="1.1">
<g id="surface1">
<path style=" stroke:none;fill-rule:nonzero;fill:rgb(50.196078%,50.196078%,100%);fill-opacity:1;" d="M 192 104.5 C 294.839844 104.5 373.921875 176.699219 373.921875 256 C 373.921875 335.300781 294.78125 407.5 192 407.5 C 89.160156 407.5 10.078125 335.300781 10.078125 256 C 10.078125 176.699219 89.21875 104.5 192 104.5 M 192 87.699219 C 85.980469 87.699219 0 163 0 256 C 0 349 85.980469 424.300781 192 424.300781 C 298.019531 424.300781 384 349 384 256 C 384 163 298.019531 87.699219 192 87.699219 Z M 130.921875 242.5 C 126.179688 283 109.441406 278.800781 88.859375 278.800781 L 97.078125 208.199219 C 119.878906 208.199219 135.359375 204.101562 130.921875 242.5 Z M 58.441406 350.300781 L 80.460938 350.300781 L 85.679688 305.5 C 110.339844 305.5 125.640625 308.5 139.800781 286.398438 C 155.460938 262.398438 159.539062 219.699219 148.378906 198.300781 C 142.558594 187.101562 133.199219 181.601562 120.480469 181.601562 L 78.058594 181.601562 Z M 169.859375 136.699219 L 191.761719 136.699219 L 186.539062 181.5 C 205.441406 181.5 222.960938 179.199219 231.421875 192.199219 C 240.300781 205.800781 236.039062 223.199219 226.441406 305.300781 L 204.238281 305.300781 C 213.480469 225.898438 215.21875 219.300781 211.859375 213.300781 C 208.621094 207.5 201.238281 208.699219 183.421875 208.699219 L 172.140625 305.300781 L 150.238281 305.300781 Z M 303 242.5 C 298.199219 283.601562 280.980469 278.800781 260.941406 278.800781 L 269.160156 208.199219 C 292.078125 208.199219 307.441406 204.101562 303 242.5 Z M 230.519531 350.300781 L 252.601562 350.300781 L 257.820312 305.5 C 283.738281 305.5 298.078125 308 311.941406 286.398438 C 327.601562 262.398438 331.679688 219.699219 320.519531 198.300781 C 314.699219 187.101562 305.339844 181.601562 292.621094 181.601562 L 250.199219 181.601562 Z M 230.519531 350.300781 "/>
</g>
</svg>
